<svg viewBox="0 0 25 24" fill="red" xmlns="http://www.w3.org/2000/svg">
    <path fill-rule="evenodd" clip-rule="evenodd" d="M15.5264 5.00391C13.5924 5.00391 12.0245 6.57176 12.0245 8.50581C12.0245 10.4399 13.5924 12.0077 15.5264 12.0077C17.4605 12.0077 19.0284 10.4399 19.0284 8.50581C19.0284 6.57176 17.4605 5.00391 15.5264 5.00391ZM14.0245 8.50581C14.0245 7.67633 14.697 7.00391 15.5264 7.00391C16.3559 7.00391 17.0284 7.67633 17.0284 8.50581C17.0284 9.33529 16.3559 10.0077 15.5264 10.0077C14.697 10.0077 14.0245 9.33529 14.0245 8.50581Z"></path>
    <path fill-rule="evenodd" clip-rule="evenodd" d="M10.1919 3.81674C12.4627 2.01428 15.3046 1 18.2785 1H22.0312C22.5835 1 23.0314 1.44772 23.0314 2L23.0312 2.01776V5.75286C23.0312 8.72653 22.0171 11.5682 20.2149 13.8389L21.0104 17.8161C21.0759 18.1439 20.9733 18.4829 20.7369 18.7193L16.7338 22.7223C16.473 22.9831 16.0899 23.0792 15.7369 22.9723C15.384 22.8655 15.1185 22.573 15.0461 22.2114L14.3277 18.6192L13.5924 19.1345C13.4479 19.2425 13.2724 19.3127 13.0794 19.3291C12.8628 19.3476 12.6564 19.2955 12.4829 19.192C12.4055 19.1461 12.3336 19.0891 12.2696 19.0217C12.1797 18.9272 12.1078 18.8147 12.06 18.6896C12.0236 18.5945 12.0025 18.4957 11.9963 18.3967C11.698 15.0187 8.9947 12.3218 5.61395 12.0336C5.35417 12.0114 5.12608 11.8918 4.96259 11.7138C4.914 11.661 4.87187 11.6038 4.83641 11.5434C4.67563 11.2692 4.65214 10.928 4.78531 10.6299C4.81249 10.5689 4.84554 10.5113 4.88368 10.4578L5.4119 9.704L1.81991 8.9856C1.45827 8.91328 1.1658 8.64778 1.05893 8.29481C0.95206 7.94183 1.04814 7.55869 1.30892 7.29791L5.31197 3.29486C5.54839 3.05844 5.88733 2.95582 6.21519 3.02139L10.1919 3.81674ZM11.2142 5.56355C13.1699 3.92646 15.6632 3 18.2785 3H21.0312V5.75286C21.0312 8.36883 20.1044 10.8626 18.4666 12.8185C18.4051 12.8745 18.3509 12.9378 18.3052 13.0069C17.7283 13.665 17.0687 14.2584 16.3351 14.7703L13.6989 16.6176C12.8573 13.5736 10.4576 11.1741 7.41358 10.3326L9.25997 7.69779L9.26111 7.69617C9.77253 6.96328 10.3653 6.30423 11.0227 5.72767C11.0929 5.68137 11.1574 5.62626 11.2142 5.56355ZM8.43401 5.50476L6.34775 5.08751L4.04437 7.39089L6.66549 7.91511L7.62096 6.55165C7.87531 6.18722 8.14716 5.83751 8.43401 5.50476ZM17.4804 16.4099C17.845 16.1554 18.1941 15.884 18.5269 15.597L18.9442 17.6835L16.6409 19.9869L16.1166 17.3656L17.4804 16.4099Z"></path>
    <path fill-rule="evenodd" clip-rule="evenodd" d="M1.9741 23.0613C4.23401 23.1177 7.23267 22.8381 8.68191 21.3889C10.3428 19.728 10.3428 17.0353 8.68191 15.3744C7.02107 13.7136 4.32831 13.7136 2.66747 15.3744C1.2242 16.8177 0.964618 19.8686 1.0036 22.0821C1.01303 22.6174 1.43892 23.048 1.9741 23.0613ZM5.23768 20.8289C6.30167 20.615 6.95406 20.2883 7.2677 19.9746C8.14749 19.0948 8.14749 17.6684 7.2677 16.7886C6.3879 15.9088 4.96147 15.9088 4.08168 16.7886C3.77942 17.0909 3.45534 17.7435 3.24194 18.8262C3.10182 19.5371 3.03277 20.3111 3.00942 21.0611C3.76285 21.0403 4.53315 20.9706 5.23768 20.8289Z"></path>
</svg>