<svg xmlns="http://www.w3.org/2000/svg" fill="red" viewBox="0 0 24 24" class="wds-icon">
    <path d="M3.499 3.043c-.641.108-1.104.355-1.603.853-.4.4-.6.717-.771 1.217l-.105.307v13.16l.105.307c.171.5.371.817.771 1.217.4.4.717.6 1.217.771l.307.105h17.16l.307-.105c.5-.171.817-.371 1.217-.771.4-.4.6-.717.771-1.217l.105-.307V5.42l-.105-.307c-.171-.5-.371-.817-.771-1.217-.41-.41-.741-.616-1.243-.775l-.321-.101-8.42-.006c-4.631-.003-8.511.01-8.621.029m16.917 2.054c.199.099.388.288.487.487.075.152.077.305.077 6.416 0 6.139-.002 6.263-.078 6.418a1.418 1.418 0 0 1-.232.307c-.306.297.399.275-8.67.275-9.069 0-8.364.022-8.67-.275a1.418 1.418 0 0 1-.232-.307c-.076-.155-.078-.29-.089-6.318-.008-4.261.001-6.213.031-6.333a1.02 1.02 0 0 1 .686-.721c.085-.025 3.13-.037 8.334-.033 8.023.007 8.203.009 8.356.084M9.78 7.519c-.304.07-.52.265-.686.621l-.093.2L9 12.003c0 4.048-.006 3.942.249 4.183.072.069.174.146.226.173.15.078.527.117.725.076.232-.048 6.256-3.513 6.535-3.759.22-.194.305-.359.305-.593 0-.234-.142-.575-.312-.75-.1-.102-1.178-.746-3.258-1.945-1.71-.986-3.159-1.808-3.22-1.827a.925.925 0 0 0-.47-.042m2.933 3.74c.686.396 1.247.73 1.247.742 0 .019-2.458 1.454-2.826 1.65l-.134.071v-3.447l.233.133c.128.072.794.456 1.48.851"></path>
</svg>